<?xml version="1.0" encoding="UTF-8" standalone="yes"?>
<svg xmlns="http://www.w3.org/2000/svg" xmlns:xlink="http://www.w3.org/1999/xlink" width="530.827pt" height="304.359pt" version="1.1" viewBox="-357.544 612.409 530.827 304.359">
  <!--
	Exported with Concepts: Smarter Sketching
	Version: 2021.09.4 on Android 12
	https://concepts.app/
	-->
  <title>Untitled 4 2</title>
  <desc>Drawing exported from Concepts: Smarter Sketching</desc>
  <defs></defs>
  <g id="New_Layer_3" opacity="1.000">
    <path id="STROKE_488e20f4-9324-4793-a2c8-2ec775f67faf" opacity="1.000" fill="none" stroke="#ffffff" stroke-width="7.524" stroke-opacity="1.000" stroke-linecap="round" stroke-linejoin="round" d="M -339.979 854.923 Q -341.730 853.882 -342.187 853.556 Q -342.643 853.230 -343.178 852.749 Q -343.713 852.268 -344.120 851.784 Q -344.526 851.299 -344.738 850.989 Q -344.949 850.680 -345.259 850.126 Q -345.569 849.572 -345.938 848.771 Q -346.307 847.970 -346.458 847.540 Q -346.609 847.111 -346.763 846.518 Q -346.918 845.926 -347.056 845.010 Q -347.194 844.095 -347.266 842.846 Q -347.339 841.596 -347.311 840.094 Q -347.283 838.592 -347.245 838.040 Q -347.208 837.488 -347.144 836.852 Q -347.080 836.216 -346.957 835.338 Q -346.834 834.460 -346.715 833.793 Q -346.595 833.126 -346.440 832.332 Q -346.284 831.538 -345.870 829.321 Q -345.456 827.105 -345.352 826.400 Q -345.247 825.695 -345.173 825.005 Q -345.098 824.315 -344.963 821.860 Q -344.829 819.406 -344.842 818.038 Q -344.854 816.671 -344.907 815.822 Q -344.960 814.973 -345.081 813.916 Q -345.201 812.859 -345.483 811.063 Q -345.764 809.268 -346.405 805.875 Q -347.046 802.482 -347.432 800.679 Q -347.817 798.875 -348.046 797.747 Q -348.274 796.619 -348.662 794.798 Q -349.050 792.977 -349.208 792.142 Q -349.366 791.306 -349.389 791.156 Q -349.411 791.006 -349.777 788.613 Q -350.142 786.221 -350.245 785.205 Q -350.347 784.189 -350.456 782.701 Q -350.565 781.213 -350.613 780.115 Q -350.661 779.017 -350.690 778.043 Q -350.718 777.069 -350.689 775.613 Q -350.660 774.158 -350.566 773.055 Q -350.472 771.952 -350.423 771.577 Q -350.375 771.202 -350.200 770.173 Q -350.026 769.145 -349.854 768.355 Q -349.681 767.565 -349.141 765.547 Q -348.600 763.530 -348.330 762.622 Q -348.060 761.714 -347.699 760.648 Q -347.338 759.581 -346.465 757.501 Q -345.591 755.420 -345.095 754.375 Q -344.598 753.330 -344.333 752.832 Q -344.068 752.334 -343.646 751.596 Q -343.223 750.858 -343.012 750.485 Q -342.800 750.112 -342.695 749.938 Q -342.589 749.764 -342.032 748.839 Q -341.474 747.914 -340.589 746.584 Q -339.703 745.254 -338.629 743.820 Q -337.556 742.385 -337.401 742.196 Q -337.247 742.007 -336.450 741.013 Q -335.653 740.019 -334.224 738.106 Q -332.795 736.193 -331.751 734.922 Q -330.706 733.652 -330.246 733.111 Q -329.785 732.569 -329.297 732.006 Q -328.808 731.444 -328.092 730.621 Q -327.376 729.798 -326.455 728.774 Q -325.533 727.750 -324.528 726.657 Q -323.524 725.563 -322.647 724.593 Q -321.770 723.623 -320.885 722.667 Q -319.999 721.712 -319.660 721.347 Q -319.320 720.982 -318.192 719.729 Q -317.063 718.475 -315.020 716.322 Q -312.977 714.169 -311.570 712.656 Q -310.163 711.144 -306.436 707.431 Q -302.708 703.717 -301.413 702.440 Q -300.118 701.162 -299.172 700.299 Q -298.227 699.435 -297.670 698.937 Q -297.113 698.440 -295.041 696.686 Q -292.970 694.933 -291.828 693.984 Q -290.686 693.035 -289.184 691.737 Q -287.683 690.439 -287.480 690.254 "></path>
    <path id="STROKE_a780fe89-3848-4617-80b5-45e69d156c7f" opacity="1.000" fill="none" stroke="#ffffff" stroke-width="7.524" stroke-opacity="1.000" stroke-linecap="round" stroke-linejoin="round" d="M -291.305 693.039 Q -291.164 692.879 -290.530 692.347 Q -289.896 691.814 -288.503 690.843 Q -287.110 689.872 -286.143 689.220 Q -285.177 688.568 -284.611 688.179 Q -284.045 687.791 -282.790 686.997 Q -281.535 686.203 -280.621 685.678 Q -279.706 685.154 -278.111 684.162 Q -276.515 683.170 -275.911 682.793 Q -275.307 682.416 -273.786 681.524 Q -272.264 680.632 -271.565 680.226 Q -270.866 679.820 -269.698 679.161 Q -268.529 678.501 -267.521 677.942 Q -266.513 677.382 -265.855 677.012 Q -265.197 676.642 -263.453 675.658 Q -261.708 674.675 -260.517 673.963 Q -259.325 673.250 -258.417 672.670 Q -257.508 672.090 -257.461 672.064 Q -257.414 672.038 -256.260 671.249 Q -255.106 670.460 -253.340 669.101 Q -251.575 667.742 -251.490 667.682 Q -251.405 667.622 -250.541 666.904 Q -249.678 666.186 -249.184 665.715 Q -248.689 665.243 -248.213 664.728 Q -247.736 664.214 -246.575 662.761 Q -245.413 661.309 -244.695 660.288 Q -243.977 659.267 -243.623 658.714 Q -243.270 658.162 -242.982 657.691 Q -242.695 657.220 -241.771 655.895 Q -240.847 654.569 -240.308 653.872 Q -239.769 653.176 -239.494 652.836 Q -239.219 652.496 -238.935 652.136 Q -238.652 651.777 -237.963 650.936 Q -237.274 650.095 -236.273 648.961 Q -235.271 647.828 -234.701 647.231 Q -234.131 646.635 -233.575 646.089 Q -233.018 645.544 -232.129 644.731 Q -231.240 643.919 -230.593 643.366 Q -229.946 642.813 -227.040 640.458 Q -224.133 638.103 -222.160 636.601 Q -220.187 635.099 -219.452 634.556 Q -218.717 634.013 -218.276 633.699 Q -217.835 633.385 -215.178 631.637 Q -212.522 629.888 -210.816 628.891 Q -209.110 627.895 -207.653 627.099 Q -206.196 626.304 -204.878 625.598 Q -203.559 624.891 -202.165 624.235 Q -200.771 623.579 -197.976 622.605 Q -195.181 621.630 -193.532 621.164 Q -191.883 620.697 -189.974 620.233 Q -188.064 619.768 -186.822 619.577 Q -185.580 619.386 -184.943 619.369 Q -184.305 619.352 -183.841 619.381 Q -183.377 619.410 -182.766 619.536 "></path>
    <path id="STROKE_04bf6d2b-8dc1-418a-bf60-a0325ab10792" opacity="1.000" fill="none" stroke="#ffffff" stroke-width="7.524" stroke-opacity="1.000" stroke-linecap="round" stroke-linejoin="round" d="M -185.824 618.987 Q -185.330 619.013 -184.974 619.062 Q -184.618 619.112 -184.262 619.229 Q -183.907 619.345 -183.712 619.459 Q -183.518 619.574 -183.358 619.729 Q -183.198 619.884 -182.949 620.329 Q -182.700 620.774 -182.641 621.009 Q -182.583 621.245 -182.565 621.542 Q -182.548 621.839 -182.575 622.068 Q -182.602 622.296 -182.687 622.632 Q -182.772 622.969 -182.934 623.344 Q -183.096 623.719 -183.255 623.986 Q -183.413 624.253 -183.875 624.858 Q -184.337 625.462 -185.815 626.960 Q -187.294 628.458 -187.886 629.057 Q -188.478 629.655 -189.449 630.658 Q -190.420 631.661 -191.183 632.440 Q -191.945 633.219 -192.720 634.064 Q -193.494 634.910 -194.682 636.705 Q -195.870 638.500 -196.369 639.446 Q -196.869 640.391 -196.999 640.669 Q -197.130 640.947 -197.491 641.981 Q -197.852 643.015 -197.930 643.433 Q -198.008 643.851 -198.039 644.196 Q -198.070 644.542 -198.055 645.201 Q -198.041 645.861 -197.982 646.452 Q -197.924 647.043 -197.862 647.529 Q -197.800 648.016 -197.636 648.767 Q -197.472 649.519 -197.462 649.543 Q -197.452 649.568 -197.200 650.346 Q -196.948 651.125 -196.660 651.762 Q -196.372 652.398 -196.024 652.904 Q -195.676 653.410 -195.540 653.562 Q -195.404 653.715 -194.567 654.336 Q -193.731 654.958 -193.355 655.127 Q -192.978 655.296 -192.594 655.430 Q -192.210 655.564 -191.084 655.851 Q -189.957 656.138 -189.158 656.308 Q -188.358 656.478 -187.658 656.584 Q -186.958 656.689 -186.530 656.736 Q -186.103 656.783 -185.659 656.831 Q -185.215 656.879 -183.786 656.926 Q -182.356 656.973 -181.533 656.991 Q -180.709 657.010 -179.879 657.078 Q -179.049 657.145 -178.488 657.186 Q -177.927 657.227 -177.013 657.277 Q -176.099 657.326 -175.321 657.368 Q -174.543 657.410 -174.078 657.429 Q -173.612 657.448 -172.874 657.479 Q -172.135 657.510 -171.187 657.502 Q -170.240 657.494 -168.818 657.456 Q -167.396 657.418 -165.403 657.387 Q -163.411 657.356 -162.681 657.333 Q -161.952 657.309 -160.593 657.244 Q -159.235 657.179 -158.157 657.163 Q -157.078 657.147 -155.401 657.226 Q -153.725 657.305 -152.548 657.340 Q -151.371 657.375 -149.716 657.461 Q -148.061 657.548 -147.026 657.689 Q -145.992 657.831 -144.744 658.080 Q -143.497 658.329 -141.357 658.670 Q -139.216 659.011 -137.511 659.284 Q -135.806 659.556 -135.104 659.683 Q -134.402 659.811 -134.107 659.872 Q -133.812 659.932 -133.396 660.006 Q -132.980 660.080 -132.365 660.210 "></path>
    <path id="STROKE_09bcfb2f-9364-4744-b7fd-9a2932428e67" opacity="1.000" fill="none" stroke="#ffffff" stroke-width="7.524" stroke-opacity="1.000" stroke-linecap="round" stroke-linejoin="round" d="M -344.340 850.246 Q -343.599 851.161 -343.309 851.446 Q -343.019 851.732 -342.638 852.083 Q -342.257 852.434 -341.907 852.687 Q -341.558 852.940 -341.205 853.127 Q -340.852 853.314 -340.540 853.423 Q -340.227 853.532 -339.857 853.585 Q -339.487 853.638 -338.924 853.594 Q -338.362 853.551 -337.988 853.439 Q -337.615 853.328 -336.976 853.016 Q -336.336 852.704 -335.087 851.798 Q -333.838 850.891 -332.798 849.958 Q -331.757 849.025 -330.819 848.092 Q -329.882 847.160 -329.590 846.851 Q -329.298 846.542 -328.348 845.438 Q -327.399 844.334 -326.310 842.979 Q -325.221 841.625 -324.270 840.439 Q -323.318 839.253 -322.901 838.742 Q -322.484 838.230 -321.806 837.380 Q -321.127 836.530 -320.599 835.851 Q -320.070 835.171 -319.334 834.132 Q -318.598 833.093 -318.032 832.301 Q -317.466 831.508 -316.975 830.865 Q -316.484 830.222 -315.373 828.864 Q -314.262 827.505 -314.024 827.222 Q -313.787 826.939 -312.365 825.242 Q -310.942 823.545 -310.309 822.828 Q -309.675 822.111 -307.742 819.998 Q -305.808 817.885 -305.622 817.686 Q -305.436 817.487 -305.130 817.148 Q -304.824 816.809 -304.702 816.684 Q -304.580 816.559 -303.954 815.881 Q -303.327 815.203 -302.918 814.757 Q -302.508 814.311 -301.701 813.454 Q -300.893 812.596 -300.022 811.693 Q -299.150 810.790 -297.368 809.202 Q -295.586 807.613 -294.782 806.931 Q -293.979 806.249 -293.573 805.912 Q -293.168 805.575 -292.371 804.914 Q -291.573 804.254 -290.817 803.666 Q -290.061 803.079 -286.472 800.631 "></path>
    <path id="STROKE_fbde446c-7f94-4d5a-84fa-414a9e7ca365" opacity="1.000" fill="none" stroke="#ffffff" stroke-width="7.524" stroke-opacity="1.000" stroke-linecap="round" stroke-linejoin="round" d="M -283.569 779.265 Q -283.926 780.265 -284.267 781.399 Q -284.609 782.533 -284.805 783.353 Q -285.002 784.173 -285.210 785.319 Q -285.418 786.466 -285.479 786.938 Q -285.539 787.411 -285.598 788.083 Q -285.657 788.755 -285.694 789.762 Q -285.730 790.769 -285.728 792.877 Q -285.726 794.986 -285.585 796.540 Q -285.443 798.095 -285.287 799.102 Q -285.130 800.109 -284.832 801.403 Q -284.533 802.697 -283.818 804.439 Q -283.103 806.180 -282.678 806.956 Q -282.252 807.731 -281.717 808.555 Q -281.182 809.379 -280.694 810.055 Q -280.206 810.731 -279.852 811.176 Q -279.498 811.620 -278.931 812.270 Q -278.364 812.920 -278.119 813.193 Q -277.873 813.466 -277.611 813.740 Q -277.350 814.014 -276.242 815.089 Q -275.133 816.164 -274.541 816.686 Q -273.949 817.207 -272.606 818.309 Q -271.262 819.411 -270.690 819.884 Q -270.119 820.356 -269.206 821.080 Q -268.294 821.805 -267.388 822.502 Q -266.482 823.199 -265.650 823.839 Q -264.817 824.480 -264.418 824.756 Q -264.020 825.031 -263.819 825.156 Q -263.618 825.280 -262.922 825.640 Q -262.226 826.001 -261.871 826.151 Q -261.516 826.302 -261.080 826.480 Q -260.644 826.657 -259.837 826.940 "></path>
    <path id="STROKE_1ab7a4f8-aa7f-4698-a53e-1847edb06271" opacity="1.000" fill="none" stroke="#ffffff" stroke-width="7.524" stroke-opacity="1.000" stroke-linecap="round" stroke-linejoin="round" d="M -272.698 778.353 Q -271.693 778.275 -270.721 778.322 Q -269.750 778.369 -269.091 778.502 Q -268.433 778.634 -267.824 778.835 Q -267.215 779.037 -266.870 779.192 Q -266.524 779.347 -265.371 780.148 Q -264.218 780.949 -263.244 782.019 Q -262.269 783.090 -261.157 784.556 Q -260.045 786.021 -259.232 787.354 Q -258.419 788.687 -257.784 789.958 Q -257.149 791.228 -256.714 792.238 Q -256.280 793.247 -255.773 794.619 Q -255.266 795.992 -254.901 797.564 Q -254.535 799.137 -254.409 800.179 Q -254.282 801.221 -254.120 803.297 Q -253.958 805.374 -253.887 806.794 Q -253.815 808.215 -253.821 809.178 Q -253.827 810.142 -253.921 811.334 Q -254.015 812.525 -254.165 813.648 Q -254.314 814.770 -254.637 816.620 Q -254.960 818.469 -255.458 820.056 Q -255.956 821.642 -256.639 823.047 Q -257.322 824.452 -257.764 825.199 Q -258.207 825.946 -258.404 826.202 Q -258.602 826.458 -258.838 826.675 Q -259.075 826.893 -259.762 827.157 "></path>
    <path id="STROKE_e1f5ee94-5cdc-4f76-8237-e48a3c4f4d88" opacity="1.000" fill="none" stroke="#ffffff" stroke-width="7.524" stroke-opacity="1.000" stroke-linecap="round" stroke-linejoin="round" d="M -259.144 784.909 Q -257.628 784.836 -256.441 784.712 Q -255.254 784.588 -252.598 784.047 Q -249.942 783.507 -247.622 782.858 Q -245.301 782.210 -244.410 781.915 Q -243.519 781.621 -241.850 781.072 Q -240.180 780.522 -239.145 780.162 Q -238.109 779.801 -236.333 779.091 Q -234.558 778.381 -233.575 777.950 Q -232.593 777.519 -231.342 776.981 Q -230.091 776.443 -229.154 776.046 Q -228.217 775.649 -227.805 775.469 Q -227.394 775.289 -225.401 774.366 Q -223.407 773.444 -221.113 772.376 Q -218.819 771.307 -217.422 770.605 Q -216.025 769.903 -215.723 769.744 Q -215.420 769.585 -213.867 768.801 Q -212.313 768.016 -207.898 765.644 Q -203.483 763.272 -200.863 761.478 Q -198.244 759.684 -197.610 759.203 "></path>
    <path id="STROKE_06a70055-1392-4223-8c05-a65732635e78" opacity="1.000" fill="none" stroke="#ffffff" stroke-width="7.524" stroke-opacity="1.000" stroke-linecap="round" stroke-linejoin="round" d="M -343.329 852.158 Q -342.600 851.495 -342.140 851.018 Q -341.680 850.541 -341.058 849.697 Q -340.436 848.854 -340.012 848.159 Q -339.587 847.464 -339.234 846.866 Q -338.881 846.268 -338.455 845.563 Q -338.030 844.857 -337.471 843.921 Q -336.913 842.984 -335.850 840.964 Q -334.788 838.943 -333.392 836.587 Q -331.995 834.231 -331.637 833.538 Q -331.278 832.844 -330.446 831.052 Q -329.614 829.260 -329.152 828.285 Q -328.690 827.311 -328.294 826.507 Q -327.899 825.703 -327.474 824.834 Q -327.050 823.966 -326.182 822.278 Q -325.313 820.590 -324.875 819.777 Q -324.437 818.965 -323.890 817.963 Q -323.342 816.961 -322.259 815.174 Q -321.175 813.388 -319.925 811.637 Q -318.675 809.886 -318.096 809.113 Q -317.517 808.339 -315.903 806.213 Q -314.290 804.087 -312.213 801.836 Q -310.136 799.584 -308.998 798.433 Q -307.861 797.282 -305.107 794.587 Q -302.353 791.891 -300.654 790.431 Q -298.955 788.971 -297.826 788.170 Q -296.696 787.368 -294.691 786.022 Q -292.685 784.676 -290.718 783.539 Q -288.750 782.402 -288.059 782.058 Q -287.368 781.715 -285.055 780.753 Q -282.742 779.792 -281.452 779.242 Q -280.161 778.692 -276.898 777.184 Q -273.635 775.677 -271.532 774.860 Q -269.430 774.043 -266.220 773.100 Q -263.011 772.158 -258.768 770.887 Q -254.526 769.617 -252.448 768.995 Q -250.371 768.374 -249.312 768.088 Q -248.254 767.802 -243.599 766.566 Q -238.944 765.330 -235.663 764.477 Q -232.382 763.624 -229.424 762.811 Q -226.467 761.999 -220.963 760.559 Q -215.459 759.119 -212.016 758.002 Q -208.573 756.886 -206.392 756.094 Q -204.211 755.303 -200.622 753.941 "></path>
    <path id="STROKE_c38e845f-22d6-44ee-bc41-0c292d3aa967" opacity="1.000" fill="none" stroke="#ffffff" stroke-width="7.524" stroke-opacity="1.000" stroke-linecap="round" stroke-linejoin="round" d="M -283.910 780.461 Q -283.710 780.861 -283.304 781.628 Q -282.898 782.396 -282.094 783.800 Q -281.290 785.205 -280.462 786.602 Q -279.634 788.000 -278.884 789.281 Q -278.133 790.562 -277.536 791.586 Q -276.938 792.610 -276.182 793.781 Q -275.425 794.951 -274.785 796.013 Q -274.144 797.074 -273.657 797.997 Q -273.170 798.919 -272.988 799.298 Q -272.806 799.676 -272.516 800.297 Q -272.225 800.917 -271.320 803.526 Q -270.415 806.135 -269.902 808.135 Q -269.390 810.136 -268.892 812.097 Q -268.395 814.058 -267.946 815.988 Q -267.497 817.919 -266.952 819.858 Q -266.408 821.798 -265.142 823.096 Q -263.876 824.394 -263.406 824.739 "></path>
    <path id="STROKE_367bff52-3050-4e16-8304-99291a0aca2d" opacity="1.000" fill="none" stroke="#ffffff" stroke-width="7.524" stroke-opacity="1.000" stroke-linecap="round" stroke-linejoin="round" d="M -310.000 709.240 Q -310.092 709.493 -310.384 710.359 Q -310.676 711.225 -310.976 712.040 Q -311.275 712.856 -312.054 714.613 Q -312.833 716.370 -313.260 717.362 Q -313.687 718.355 -314.039 719.275 Q -314.390 720.195 -314.996 722.147 Q -315.603 724.098 -315.874 725.243 Q -316.146 726.387 -316.412 727.434 Q -316.677 728.480 -316.865 729.221 Q -317.053 729.961 -317.213 730.716 Q -317.373 731.472 -317.476 732.183 Q -317.579 732.894 -317.613 733.955 Q -317.646 735.015 -317.563 735.701 Q -317.481 736.386 -317.282 736.932 Q -317.083 737.479 -316.864 737.801 Q -316.646 738.123 -316.476 738.248 Q -316.307 738.373 -316.195 738.415 Q -316.084 738.457 -315.058 738.504 Q -314.032 738.550 -313.403 738.397 Q -312.774 738.243 -312.201 738.002 Q -311.627 737.761 -310.116 736.895 Q -308.605 736.029 -307.532 735.338 Q -306.460 734.646 -305.716 734.150 Q -304.973 733.653 -303.833 732.907 Q -302.694 732.161 -302.051 731.767 Q -301.407 731.372 -300.548 730.859 Q -299.689 730.346 -298.680 729.706 Q -297.671 729.066 -297.254 728.808 Q -296.837 728.550 -296.591 728.393 Q -296.345 728.236 -293.562 726.611 Q -290.780 724.986 -287.816 723.180 Q -284.852 721.374 -283.312 720.473 Q -281.773 719.571 -280.892 719.081 Q -280.010 718.591 -279.426 718.283 Q -278.842 717.974 -274.881 715.919 Q -270.920 713.865 -267.427 712.170 Q -263.935 710.475 -260.886 709.092 Q -257.838 707.709 -256.308 707.007 Q -254.778 706.305 -252.154 705.349 Q -249.531 704.393 -247.683 703.799 Q -245.835 703.205 -243.839 702.502 Q -241.843 701.799 -240.533 701.395 Q -239.223 700.991 -238.355 700.764 Q -237.488 700.537 -233.961 699.698 Q -230.434 698.859 -228.686 698.459 Q -226.938 698.058 -225.520 697.725 Q -224.101 697.391 -223.401 697.222 Q -222.700 697.053 -220.646 696.574 Q -218.593 696.095 -216.859 695.714 Q -215.126 695.333 -207.192 693.904 Q -199.258 692.476 -197.889 692.320 Q -196.520 692.164 -195.735 692.072 Q -194.950 691.980 -192.810 691.674 Q -190.670 691.368 -188.562 691.092 Q -186.453 690.816 -185.475 690.722 Q -184.496 690.629 -179.893 690.075 Q -175.289 689.521 -172.136 689.183 Q -168.983 688.845 -167.487 688.719 Q -165.991 688.593 -164.785 688.457 Q -163.579 688.321 -162.317 688.168 Q -161.054 688.015 -160.360 687.900 Q -159.666 687.785 -158.633 687.558 Q -157.599 687.330 -156.564 687.072 Q -155.529 686.814 -153.863 686.443 "></path>
    <path id="STROKE_f80408c9-c4b1-4a23-8bce-31812c7a3fe5" opacity="1.000" fill="none" stroke="#ffffff" stroke-width="7.524" stroke-opacity="1.000" stroke-linecap="round" stroke-linejoin="round" d="M -335.197 750.347 Q -335.767 750.793 -335.979 751.008 Q -336.191 751.223 -337.699 753.462 Q -339.206 755.701 -340.390 758.136 Q -341.574 760.571 -342.204 762.601 Q -342.835 764.632 -343.049 765.646 Q -343.264 766.661 -343.305 767.212 Q -343.347 767.762 -343.318 768.115 Q -343.288 768.469 -343.098 769.020 Q -342.908 769.572 -342.733 769.788 Q -342.558 770.005 -342.316 770.200 Q -342.074 770.394 -341.840 770.479 Q -341.605 770.563 -341.278 770.599 Q -340.951 770.635 -340.678 770.598 Q -340.406 770.562 -339.591 770.108 Q -338.776 769.654 -338.152 769.035 Q -337.527 768.416 -337.045 767.808 Q -336.564 767.199 -335.570 765.615 Q -334.575 764.031 -333.962 762.866 Q -333.348 761.701 -332.996 760.994 Q -332.644 760.287 -332.264 759.523 Q -331.884 758.759 -331.485 757.948 Q -331.087 757.137 -330.874 756.657 Q -330.661 756.178 -330.176 754.852 Q -329.691 753.525 -329.522 752.901 Q -329.353 752.277 -329.240 751.505 Q -329.128 750.734 -329.143 750.218 Q -329.158 749.703 -329.296 749.228 Q -329.434 748.754 -329.716 748.356 Q -329.998 747.958 -330.368 747.811 Q -330.738 747.665 -331.279 747.736 Q -331.820 747.808 -331.854 747.825 Q -331.887 747.843 -332.511 748.181 Q -333.135 748.519 -335.844 750.508 "></path>
    <path id="STROKE_02eee0b0-9635-46db-8485-085d984f3933" opacity="1.000" fill="none" stroke="#ffffff" stroke-width="7.524" stroke-opacity="1.000" stroke-linecap="round" stroke-linejoin="round" d="M -192.917 762.386 Q -193.557 762.221 -194.193 761.927 Q -194.830 761.633 -195.332 761.110 Q -195.834 760.587 -196.149 759.846 Q -196.464 759.106 -196.531 758.731 Q -196.597 758.356 -196.626 758.026 Q -196.655 757.697 -196.636 757.095 Q -196.617 756.494 -196.558 756.132 Q -196.499 755.769 -196.202 754.847 Q -195.905 753.924 -195.514 753.260 Q -195.122 752.596 -194.512 751.880 Q -193.901 751.163 -193.695 750.956 Q -193.488 750.749 -192.132 749.550 Q -190.776 748.350 -189.014 746.988 Q -187.251 745.626 -186.465 745.043 Q -185.679 744.460 -185.144 744.081 Q -184.608 743.703 -183.800 743.129 Q -182.993 742.555 -181.814 741.749 Q -180.636 740.943 -179.782 740.359 Q -178.929 739.776 -178.694 739.611 Q -178.459 739.446 -177.137 738.541 Q -175.815 737.635 -175.360 737.328 Q -174.905 737.021 -173.508 735.977 Q -172.110 734.934 -171.332 734.273 Q -170.554 733.613 -169.703 732.788 Q -168.852 731.963 -168.323 731.368 Q -167.793 730.774 -167.229 730.034 Q -166.665 729.293 -165.890 728.210 Q -165.116 727.126 -164.674 726.495 Q -164.233 725.863 -164.071 725.595 Q -163.909 725.327 -163.647 724.857 Q -163.385 724.387 -162.647 722.856 Q -161.908 721.326 -161.652 720.709 Q -161.397 720.092 -160.599 717.880 Q -159.801 715.669 -159.585 715.013 Q -159.369 714.356 -158.637 711.971 Q -157.906 709.587 -157.384 707.928 Q -156.861 706.269 -156.367 704.607 Q -155.872 702.946 -155.678 702.261 Q -155.485 701.577 -155.219 700.749 Q -154.953 699.921 -154.769 699.392 Q -154.585 698.863 -154.022 697.373 Q -153.459 695.883 -153.150 695.037 Q -152.841 694.191 -152.499 693.281 Q -152.156 692.372 -151.806 691.477 Q -151.456 690.582 -150.984 689.398 Q -150.512 688.215 -150.039 687.092 Q -149.566 685.968 -148.855 684.374 Q -148.145 682.780 -147.389 681.353 Q -146.634 679.927 -146.165 679.159 Q -145.696 678.391 -145.313 677.817 Q -144.929 677.242 -144.542 676.707 Q -144.154 676.172 -143.606 675.455 Q -143.057 674.737 -142.219 673.659 Q -141.381 672.581 -140.791 671.848 Q -140.202 671.114 -139.691 670.531 Q -139.181 669.947 -137.893 668.624 Q -136.606 667.301 -135.540 666.324 Q -134.473 665.347 -132.677 663.763 Q -130.880 662.179 -129.682 661.210 Q -128.484 660.240 -127.430 659.417 Q -126.375 658.594 -125.064 657.595 Q -123.754 656.595 -122.745 655.831 Q -121.736 655.066 -120.676 654.271 Q -119.616 653.476 -117.665 652.226 Q -115.714 650.975 -114.601 650.356 Q -113.488 649.737 -112.429 649.202 Q -111.369 648.667 -110.034 648.031 Q -108.699 647.395 -107.262 646.861 Q -105.826 646.327 -104.643 645.929 Q -103.461 645.531 -102.054 645.090 Q -100.647 644.650 -99.060 644.142 Q -97.473 643.633 -95.706 643.056 Q -93.940 642.479 -92.589 642.049 Q -91.238 641.618 -89.836 641.191 Q -88.434 640.765 -87.446 640.500 Q -86.458 640.236 -85.407 639.994 Q -84.357 639.751 -82.916 639.443 Q -81.475 639.135 -79.789 638.832 Q -78.103 638.529 -76.172 638.232 Q -74.240 637.935 -72.294 637.697 Q -70.347 637.459 -68.384 637.279 Q -66.422 637.100 -64.935 636.973 Q -63.447 636.846 -62.436 636.771 Q -61.424 636.696 -59.738 636.611 Q -58.052 636.526 -55.691 636.432 Q -53.330 636.338 -51.635 636.295 Q -49.940 636.251 -48.396 636.261 Q -46.852 636.271 -46.198 636.248 Q -45.544 636.226 -43.594 635.323 "></path>
    <path id="STROKE_32b8a7b2-10f3-46c3-8be9-b27ab3eedc7a" opacity="1.000" fill="none" stroke="#ffffff" stroke-width="7.524" stroke-opacity="1.000" stroke-linecap="round" stroke-linejoin="round" d="M -82.737 640.244 Q -81.060 639.834 -80.117 639.635 Q -79.174 639.436 -77.754 639.190 Q -76.334 638.944 -75.301 638.796 Q -74.268 638.648 -73.130 638.499 Q -71.993 638.349 -66.975 637.664 Q -61.957 636.980 -60.454 636.853 Q -58.951 636.727 -55.927 636.599 Q -52.904 636.472 -51.282 636.402 Q -49.661 636.332 -48.458 636.316 Q -47.255 636.301 -45.409 636.342 Q -43.562 636.383 -41.502 636.434 Q -39.441 636.485 -38.057 636.558 Q -36.673 636.631 -35.505 636.722 Q -34.337 636.813 -33.183 636.903 Q -32.028 636.992 -30.372 637.116 Q -28.716 637.240 -27.202 637.379 Q -25.688 637.518 -24.386 637.652 Q -23.083 637.785 -23.040 637.786 Q -22.998 637.787 -21.786 637.883 Q -20.575 637.978 -18.390 638.116 Q -16.205 638.254 -14.819 638.376 Q -13.433 638.498 -11.585 638.720 Q -9.736 638.942 -6.877 639.251 Q -4.018 639.560 -1.944 639.752 Q 0.131 639.945 0.732 640.002 Q 1.333 640.059 3.878 640.213 Q 6.424 640.367 8.419 640.449 Q 10.414 640.532 11.824 640.561 Q 13.234 640.590 15.489 640.574 Q 17.743 640.558 18.262 640.534 Q 18.780 640.510 21.210 640.296 Q 23.640 640.081 25.621 639.777 Q 27.602 639.473 28.424 639.313 Q 29.246 639.154 30.577 638.855 Q 31.908 638.555 34.034 638.023 Q 36.159 637.491 37.334 637.182 Q 38.508 636.874 38.865 636.776 Q 39.221 636.679 40.051 636.478 Q 40.881 636.277 41.337 636.175 Q 41.794 636.073 44.778 635.693 Q 47.762 635.313 49.062 635.259 Q 50.363 635.205 52.757 635.292 Q 55.150 635.379 56.467 635.487 Q 57.785 635.595 59.655 635.850 Q 61.525 636.104 63.818 636.627 Q 66.111 637.151 67.334 637.509 Q 68.558 637.868 70.046 638.432 Q 71.534 638.996 72.284 639.352 Q 73.033 639.708 74.639 640.749 Q 76.246 641.791 76.915 642.369 Q 77.585 642.946 78.148 643.512 Q 78.710 644.078 79.468 644.954 Q 80.226 645.831 80.621 646.366 Q 81.015 646.901 81.419 647.765 Q 81.824 648.630 81.846 648.795 Q 81.869 648.961 80.655 649.680 Q 79.441 650.398 77.510 650.834 Q 75.579 651.269 73.497 651.646 Q 71.415 652.023 70.915 652.110 Q 70.415 652.197 67.619 652.895 Q 64.823 653.593 62.803 654.467 Q 60.783 655.341 58.788 656.688 Q 56.794 658.035 55.749 659.041 Q 54.704 660.048 54.189 660.753 Q 53.674 661.458 53.269 662.395 Q 52.863 663.332 52.744 663.971 Q 52.625 664.609 52.602 665.416 Q 52.580 666.222 52.622 666.781 Q 52.664 667.339 53.230 670.349 Q 53.795 673.358 54.129 674.661 Q 54.463 675.965 55.872 678.640 Q 57.281 681.314 60.370 685.521 Q 63.459 689.728 64.219 690.785 "></path>
    <path id="STROKE_06e7e0ae-f10f-4a3f-89b7-aadaebde86a2" opacity="1.000" fill="none" stroke="#ffffff" stroke-width="7.524" stroke-opacity="1.000" stroke-linecap="round" stroke-linejoin="round" d="M 57.473 680.935 Q 58.525 682.668 59.270 683.928 Q 60.015 685.188 60.640 686.220 Q 61.264 687.251 62.017 688.474 Q 62.769 689.697 63.457 690.745 Q 64.144 691.794 65.078 693.106 Q 66.012 694.418 66.533 695.085 Q 67.053 695.753 67.763 696.698 Q 68.474 697.644 68.968 698.346 Q 69.461 699.047 70.047 699.906 Q 70.632 700.766 71.570 702.107 Q 72.507 703.448 73.409 704.686 Q 74.311 705.924 74.552 706.249 Q 74.793 706.573 75.306 707.319 Q 75.820 708.065 76.685 709.340 Q 77.551 710.615 78.263 711.691 Q 78.975 712.768 79.811 714.084 Q 80.648 715.401 81.496 716.712 Q 82.344 718.024 82.880 718.877 Q 83.415 719.729 84.301 721.224 Q 85.187 722.718 85.832 723.760 Q 86.477 724.801 87.106 725.765 Q 87.734 726.728 87.847 726.911 Q 87.959 727.093 88.572 728.072 Q 89.185 729.051 89.858 730.270 Q 90.532 731.488 91.470 733.271 Q 92.408 735.054 93.164 736.508 Q 93.919 737.962 94.440 738.970 Q 94.960 739.978 95.498 741.025 Q 96.036 742.071 96.519 743.002 Q 97.002 743.932 97.645 745.152 Q 98.287 746.372 98.924 747.533 Q 99.561 748.693 100.110 749.734 Q 100.659 750.775 101.119 751.696 Q 101.579 752.617 102.234 754.060 Q 102.889 755.504 103.739 757.471 Q 104.588 759.437 105.201 760.891 Q 105.814 762.344 106.191 763.285 Q 106.567 764.226 107.147 765.684 Q 107.728 767.141 108.512 769.116 Q 109.297 771.091 109.831 772.452 Q 110.364 773.813 110.646 774.560 Q 110.928 775.306 111.438 776.737 Q 111.947 778.168 112.684 780.284 Q 113.420 782.399 114.064 784.387 Q 114.708 786.376 115.259 788.236 Q 115.810 790.097 116.218 791.494 Q 116.626 792.892 116.890 793.826 Q 117.154 794.759 117.533 796.177 Q 117.912 797.594 118.406 799.494 Q 118.899 801.394 119.322 803.086 Q 119.744 804.778 120.095 806.260 Q 120.446 807.743 120.801 809.316 Q 121.155 810.890 121.513 812.553 Q 121.870 814.217 122.189 815.680 Q 122.508 817.142 122.788 818.404 Q 123.067 819.666 123.324 820.827 Q 123.581 821.987 123.814 823.046 Q 124.047 824.105 124.321 825.313 Q 124.595 826.521 124.910 827.877 Q 125.225 829.234 125.563 830.489 Q 125.900 831.744 126.261 832.897 Q 126.621 834.050 126.902 834.896 Q 127.182 835.741 127.384 836.278 Q 127.585 836.815 128.064 837.883 Q 128.544 838.952 129.113 840.152 Q 129.681 841.351 130.374 842.536 Q 131.068 843.721 131.824 844.898 Q 132.579 846.075 133.162 846.957 Q 133.744 847.838 134.405 848.815 Q 135.066 849.792 135.806 850.866 Q 136.546 851.939 137.363 853.105 Q 138.181 854.271 138.905 855.285 Q 139.630 856.299 140.584 857.529 Q 141.538 858.759 142.596 859.922 Q 143.653 861.086 144.539 861.911 Q 145.425 862.736 146.069 863.517 "></path>
    <path id="STROKE_5dbc502c-e48c-4add-9d34-554781052a94" opacity="1.000" fill="none" stroke="#ffffff" stroke-width="7.524" stroke-opacity="1.000" stroke-linecap="round" stroke-linejoin="round" d="M -195.651 760.628 Q -194.901 761.529 -194.679 761.779 Q -194.458 762.028 -194.018 762.304 Q -193.578 762.579 -193.397 762.658 Q -193.216 762.737 -192.729 762.889 Q -192.243 763.042 -191.881 763.113 Q -191.519 763.183 -190.929 763.243 Q -190.338 763.303 -189.512 763.339 Q -188.687 763.374 -187.500 763.325 Q -186.314 763.276 -184.774 763.002 Q -183.234 762.728 -181.621 762.143 Q -180.007 761.557 -179.142 761.153 Q -178.276 760.748 -177.359 760.267 Q -176.443 759.785 -176.359 759.735 Q -176.276 759.685 -174.649 758.795 Q -173.023 757.906 -171.000 757.012 Q -168.977 756.118 -167.967 755.678 Q -166.957 755.237 -166.286 754.896 Q -165.616 754.555 -164.814 754.107 Q -164.013 753.660 -162.857 752.992 Q -161.702 752.325 -160.688 751.744 Q -159.675 751.164 -158.368 750.423 Q -157.061 749.683 -155.118 748.599 Q -153.174 747.515 -151.580 746.646 Q -149.987 745.777 -148.121 744.795 Q -146.256 743.813 -145.194 743.222 Q -144.131 742.630 -143.534 742.282 Q -142.937 741.934 -142.585 741.721 Q -142.233 741.508 -141.155 740.880 Q -140.077 740.252 -139.332 739.822 Q -138.588 739.392 -136.641 738.383 Q -134.694 737.375 -134.215 737.169 Q -133.736 736.964 -133.182 736.760 Q -132.629 736.556 -131.797 736.313 Q -130.966 736.070 -129.672 735.720 Q -128.378 735.369 -127.373 735.110 Q -126.367 734.850 -125.292 734.598 Q -124.217 734.346 -123.460 734.190 Q -122.703 734.035 -120.358 733.639 Q -118.012 733.243 -117.558 733.177 Q -117.105 733.111 -114.981 732.898 Q -112.857 732.686 -110.963 732.537 Q -109.069 732.389 -107.968 732.309 Q -106.866 732.229 -106.323 732.208 Q -105.780 732.187 -105.125 732.185 Q -104.470 732.184 -103.966 732.171 Q -103.461 732.159 -102.611 732.164 Q -101.761 732.170 -100.397 732.190 Q -99.033 732.209 -97.036 732.381 Q -95.039 732.553 -92.408 732.876 "></path>
    <path id="STROKE_7210fe2e-e1c4-4628-a5cc-7c61c9507cbe" opacity="1.000" fill="none" stroke="#ffffff" stroke-width="7.524" stroke-opacity="1.000" stroke-linecap="round" stroke-linejoin="round" d="M -130.437 735.494 Q -128.596 734.788 -126.951 734.207 Q -125.306 733.626 -124.257 733.303 Q -123.208 732.980 -120.486 732.387 Q -117.764 731.794 -113.583 731.465 Q -109.403 731.136 -108.271 731.098 Q -107.139 731.061 -106.584 731.058 Q -106.028 731.056 -103.147 731.196 Q -100.265 731.336 -97.469 731.528 Q -94.674 731.719 -93.301 731.899 Q -91.928 732.079 -87.755 732.858 Q -83.582 733.637 -82.328 733.895 Q -81.073 734.154 -78.086 734.874 Q -75.099 735.594 -73.741 736.023 Q -72.384 736.451 -70.864 737.123 "></path>
    <path id="STROKE_c5f7550e-dc7f-4066-9bef-434fb8ee8531" opacity="1.000" fill="none" stroke="#ffffff" stroke-width="7.524" stroke-opacity="1.000" stroke-linecap="round" stroke-linejoin="round" d="M -67.883 719.322 Q -68.907 719.157 -69.463 719.107 Q -70.019 719.058 -70.455 719.083 Q -70.892 719.109 -71.352 719.199 Q -71.813 719.289 -72.283 719.477 Q -72.753 719.665 -73.301 720.096 Q -73.849 720.526 -74.363 721.419 Q -74.878 722.312 -75.017 722.998 Q -75.156 723.683 -75.178 724.223 Q -75.201 724.763 -75.099 725.708 Q -74.996 726.653 -74.995 726.683 Q -74.994 726.714 -74.304 729.219 Q -73.614 731.725 -73.058 733.154 Q -72.503 734.583 -71.967 735.716 Q -71.431 736.849 -71.000 737.646 Q -70.568 738.443 -69.674 739.782 Q -68.779 741.122 -67.954 742.314 Q -67.130 743.507 -66.137 744.895 Q -65.145 746.283 -63.408 748.040 Q -61.670 749.797 -60.164 751.349 Q -58.658 752.901 -57.795 753.659 Q -56.931 754.416 -56.736 754.563 Q -56.541 754.709 -54.826 755.781 Q -53.112 756.852 -50.856 758.048 Q -48.600 759.245 -47.481 759.763 Q -46.363 760.280 -45.296 760.675 Q -44.229 761.070 -43.337 761.269 Q -42.444 761.468 -41.964 761.508 Q -41.483 761.548 -41.141 761.526 Q -40.798 761.504 -39.426 761.156 Q -38.053 760.809 -37.574 760.590 Q -37.095 760.371 -36.743 760.125 Q -36.390 759.878 -35.948 759.390 Q -35.507 758.902 -35.195 758.122 Q -34.884 757.342 -34.820 756.891 Q -34.756 756.439 -34.745 756.172 Q -34.734 755.906 -34.765 755.322 Q -34.797 754.739 -34.808 754.674 Q -34.819 754.609 -35.163 752.619 Q -35.507 750.628 -35.805 749.329 Q -36.102 748.030 -37.456 745.144 Q -38.809 742.259 -39.449 741.279 Q -40.089 740.298 -40.504 739.740 Q -40.919 739.182 -41.282 738.732 Q -41.644 738.281 -43.167 736.482 Q -44.691 734.682 -45.496 733.749 Q -46.302 732.816 -47.145 731.879 Q -47.989 730.942 -49.964 729.207 Q -51.939 727.472 -53.129 726.600 Q -54.319 725.729 -56.516 724.410 Q -58.712 723.091 -60.259 722.292 Q -61.805 721.494 -62.771 721.126 Q -63.737 720.758 -64.233 720.617 Q -64.729 720.476 -65.869 720.264 Q -67.008 720.053 -68.141 720.016 Q -69.274 719.979 -70.029 720.065 Q -70.784 720.151 -70.950 720.187 Q -71.116 720.223 -71.992 720.555 Q -72.869 720.888 -73.434 721.389 Q -74.000 721.890 -74.411 722.693 Q -74.822 723.496 -75.087 724.258 "></path>
    <path id="STROKE_7d3dda8e-387e-474c-b15f-f1c309ecad9b" opacity="1.000" fill="none" stroke="#ffffff" stroke-width="7.524" stroke-opacity="1.000" stroke-linecap="round" stroke-linejoin="round" d="M -113.007 732.082 Q -115.287 734.096 -115.353 734.146 Q -115.418 734.197 -117.287 736.252 Q -119.156 738.308 -119.977 739.404 Q -120.798 740.501 -121.325 741.279 Q -121.851 742.057 -123.300 744.459 Q -124.748 746.861 -125.066 747.418 Q -125.384 747.974 -126.455 750.020 Q -127.527 752.066 -128.054 753.177 Q -128.581 754.288 -129.256 755.952 Q -129.932 757.616 -130.178 758.427 Q -130.425 759.239 -130.539 759.994 Q -130.653 760.749 -130.606 761.365 Q -130.558 761.981 -130.446 762.276 Q -130.333 762.572 -130.078 762.893 Q -129.822 763.215 -129.705 763.317 Q -129.588 763.419 -129.389 763.528 Q -129.190 763.637 -128.900 763.724 Q -128.611 763.810 -128.304 763.842 Q -127.998 763.874 -126.784 763.686 Q -125.570 763.497 -123.142 761.968 Q -120.713 760.438 -118.763 758.772 Q -116.814 757.106 -116.340 756.700 Q -115.865 756.293 -113.812 754.532 Q -111.758 752.771 -110.870 752.022 Q -109.981 751.274 -108.106 749.735 Q -106.231 748.196 -105.715 747.776 Q -105.199 747.357 -103.429 745.855 Q -101.659 744.352 -100.230 742.993 Q -98.800 741.635 -97.764 740.537 Q -96.728 739.439 -96.261 738.885 Q -95.795 738.330 -95.009 737.316 Q -94.223 736.302 -93.962 735.962 Q -93.701 735.622 -92.658 734.161 "></path>
    <path id="STROKE_1e150c91-f583-4af6-9151-ed2e0d53f432" opacity="1.000" fill="none" stroke="#ffffff" stroke-width="7.524" stroke-opacity="1.000" stroke-linecap="round" stroke-linejoin="round" d="M -36.503 745.333 Q -33.816 747.446 -32.727 748.269 Q -31.639 749.092 -31.507 749.184 Q -31.375 749.275 -30.385 749.988 Q -29.395 750.701 -26.656 752.380 Q -23.917 754.060 -21.112 755.563 Q -18.307 757.066 -16.728 757.897 Q -15.149 758.727 -12.304 760.154 Q -9.459 761.582 -7.138 762.665 Q -4.817 763.748 -3.395 764.459 Q -1.973 765.170 -1.283 765.536 Q -0.593 765.902 0.635 766.567 Q 1.862 767.232 3.887 768.285 Q 5.911 769.338 9.141 771.001 Q 12.371 772.664 14.915 774.080 Q 17.459 775.497 19.316 776.668 Q 21.173 777.839 22.844 778.829 Q 24.516 779.818 26.746 781.030 Q 28.976 782.242 30.637 783.073 Q 32.298 783.904 33.524 784.540 Q 34.751 785.176 35.477 785.549 Q 36.203 785.922 38.002 786.849 Q 39.800 787.776 41.705 788.953 Q 43.610 790.130 46.275 792.368 Q 48.940 794.605 50.590 796.652 Q 52.240 798.699 52.745 799.371 "></path>
    <path id="STROKE_b1b56e58-e39d-437b-99d9-24182fc9c3f0" opacity="1.000" fill="none" stroke="#ffffff" stroke-width="7.524" stroke-opacity="1.000" stroke-linecap="round" stroke-linejoin="round" d="M 45.769 792.468 Q 46.362 793.057 48.640 795.406 Q 50.917 797.755 52.717 799.707 Q 54.517 801.659 55.327 802.548 Q 56.138 803.437 57.375 804.717 Q 58.612 805.998 59.714 807.130 Q 60.816 808.263 62.195 809.674 Q 63.574 811.085 64.795 812.336 Q 66.015 813.587 67.609 815.224 Q 69.203 816.861 70.695 818.404 Q 72.187 819.947 74.123 821.962 Q 76.059 823.978 78.439 826.467 Q 80.818 828.956 82.663 830.815 Q 84.508 832.674 86.475 834.517 Q 88.441 836.360 89.878 837.688 Q 91.315 839.017 94.048 841.399 Q 96.781 843.781 98.340 845.289 Q 99.899 846.797 100.466 847.573 Q 101.033 848.348 101.301 848.800 "></path>
    <path id="STROKE_fb1a5240-095b-4077-9a24-e671069e2f87" opacity="1.000" fill="none" stroke="#ffffff" stroke-width="7.524" stroke-opacity="1.000" stroke-linecap="round" stroke-linejoin="round" d="M 101.805 848.786 Q 101.772 849.620 101.759 849.694 Q 101.746 849.767 101.833 850.668 Q 101.920 851.569 101.937 853.732 Q 101.955 855.896 102.006 857.901 Q 102.058 859.906 102.315 862.354 Q 102.573 864.803 103.075 867.056 Q 103.577 869.309 104.094 871.308 Q 104.611 873.307 105.310 875.802 Q 106.010 878.297 106.650 880.492 Q 107.290 882.688 107.870 884.582 Q 108.451 886.477 108.941 887.976 Q 109.430 889.475 110.027 891.131 Q 110.624 892.787 110.932 893.557 Q 111.240 894.327 111.944 895.949 Q 112.648 897.571 113.469 899.155 Q 114.289 900.738 114.777 901.577 Q 115.265 902.416 115.854 903.396 Q 116.444 904.376 117.342 905.789 Q 118.240 907.201 118.803 907.894 Q 119.366 908.586 119.611 908.800 Q 119.856 909.015 120.340 909.305 Q 120.824 909.595 121.054 909.669 Q 121.283 909.744 121.907 909.729 Q 122.531 909.715 122.868 909.528 Q 123.205 909.340 123.534 909.001 Q 123.864 908.662 124.192 908.069 Q 124.521 907.476 124.744 906.806 Q 124.967 906.137 125.215 904.938 Q 125.463 903.740 125.810 901.789 Q 126.158 899.839 126.401 897.581 Q 126.644 895.323 126.783 892.757 Q 126.921 890.191 126.926 888.155 Q 126.931 886.118 126.738 883.858 Q 126.545 881.598 126.421 880.615 "></path>
    <path id="STROKE_c5543941-f537-41d8-900e-c943d328ca08" opacity="1.000" fill="none" stroke="#ffffff" stroke-width="7.524" stroke-opacity="1.000" stroke-linecap="round" stroke-linejoin="round" d="M 127.374 881.022 Q 127.574 881.059 129.841 881.231 Q 132.108 881.402 134.727 882.151 Q 137.346 882.899 139.412 884.112 Q 141.478 885.326 144.838 888.015 Q 148.197 890.704 156.922 899.720 Q 165.647 908.736 166.465 909.605 "></path>
    <path id="STROKE_851b7e04-2c9e-49e1-b044-abd3d71b167b" opacity="1.000" fill="none" stroke="#ffffff" stroke-width="7.524" stroke-opacity="1.000" stroke-linecap="round" stroke-linejoin="round" d="M 141.011 857.167 Q 142.049 858.537 142.122 858.627 Q 142.195 858.716 142.742 859.496 Q 143.290 860.277 143.824 861.042 Q 144.359 861.808 145.128 862.826 Q 145.897 863.845 146.783 864.873 Q 147.670 865.901 148.455 866.912 Q 149.240 867.924 149.922 868.919 Q 150.605 869.914 151.515 871.386 Q 152.425 872.859 153.360 874.490 Q 154.295 876.121 154.959 877.422 Q 155.624 878.722 156.260 880.015 Q 156.896 881.308 157.503 882.594 Q 158.111 883.880 158.573 884.856 Q 159.035 885.832 159.352 886.499 Q 159.668 887.165 160.233 888.361 Q 160.799 889.557 161.612 891.283 Q 162.426 893.009 163.111 894.446 Q 163.797 895.884 164.354 897.033 Q 164.911 898.182 165.374 899.307 Q 165.837 900.431 166.206 901.530 Q 166.574 902.630 166.798 903.575 Q 167.022 904.521 167.141 905.709 Q 167.260 906.897 167.141 907.553 Q 167.023 908.209 166.889 908.448 Q 166.755 908.687 166.115 909.288 "></path>
    <path id="STROKE_3f235405-a05b-464b-8c11-0f3f20026287" opacity="1.000" fill="none" stroke="#ffffff" stroke-width="7.524" stroke-opacity="1.000" stroke-linecap="round" stroke-linejoin="round" d="M -195.599 753.722 Q -194.190 752.501 -193.133 751.683 Q -192.076 750.865 -191.258 750.268 Q -190.440 749.671 -189.747 749.244 Q -189.053 748.817 -188.492 748.553 Q -187.931 748.289 -185.648 747.314 Q -183.366 746.338 -183.207 746.263 Q -183.048 746.187 -182.113 745.776 Q -181.178 745.365 -180.286 744.981 Q -179.393 744.597 -178.230 744.110 Q -177.068 743.623 -176.063 743.204 Q -175.059 742.784 -173.786 742.247 Q -172.513 741.710 -170.902 741.001 Q -169.291 740.292 -167.982 739.684 Q -166.673 739.075 -165.927 738.695 Q -165.182 738.315 -164.089 737.695 Q -162.996 737.075 -161.308 736.089 Q -159.619 735.103 -158.337 734.327 Q -157.054 733.551 -156.177 732.986 Q -155.301 732.421 -154.258 731.746 Q -153.215 731.070 -152.005 730.284 Q -150.796 729.498 -149.685 728.740 Q -148.575 727.983 -147.056 726.889 Q -145.538 725.795 -144.173 724.607 Q -142.808 723.419 -142.200 722.865 Q -141.593 722.311 -140.870 721.671 Q -140.146 721.031 -138.896 719.985 Q -137.646 718.939 -136.282 717.802 Q -134.918 716.664 -133.564 715.576 Q -132.210 714.488 -131.346 713.841 Q -130.482 713.193 -129.448 712.537 Q -128.413 711.880 -127.567 711.410 Q -126.720 710.939 -126.118 710.642 Q -125.515 710.345 -124.090 709.736 Q -122.666 709.127 -121.516 708.730 Q -120.367 708.332 -120.215 708.280 Q -120.064 708.228 -118.936 707.935 Q -117.808 707.641 -116.824 707.469 Q -115.841 707.296 -114.967 707.229 Q -114.093 707.163 -112.804 707.215 Q -111.514 707.267 -110.210 707.462 Q -108.907 707.657 -107.159 708.013 Q -105.411 708.368 -104.281 708.618 Q -103.150 708.868 -102.381 709.086 Q -101.612 709.304 -100.692 709.638 Q -99.772 709.971 -98.881 710.354 Q -97.990 710.737 -97.489 710.949 Q -96.988 711.160 -95.927 711.586 Q -94.866 712.011 -93.079 712.693 Q -91.293 713.374 -89.975 714.019 Q -88.657 714.663 -87.420 715.398 Q -86.183 716.133 -84.589 717.173 Q -82.994 718.213 -81.718 719.087 Q -80.442 719.962 -79.005 721.025 Q -77.569 722.088 -75.882 723.124 "></path>
    <path id="STROKE_b55c4967-a9a0-46ed-8426-d7cd7b9f98f6" opacity="1.000" fill="none" stroke="#ffffff" stroke-width="7.524" stroke-opacity="1.000" stroke-linecap="round" stroke-linejoin="round" d="M -144.715 677.533 Q -144.541 677.376 -144.054 677.014 Q -143.567 676.652 -142.569 676.010 Q -141.570 675.368 -140.938 675.020 Q -140.305 674.672 -139.012 674.105 Q -137.720 673.538 -135.328 672.730 Q -132.936 671.922 -131.045 671.411 Q -129.154 670.899 -127.011 670.557 Q -124.867 670.215 -122.812 670.033 Q -120.757 669.851 -119.434 669.675 Q -118.112 669.499 -116.415 669.210 Q -114.718 668.922 -114.188 668.834 Q -113.657 668.746 -112.378 668.586 Q -111.099 668.427 -110.403 668.374 Q -109.707 668.321 -108.358 668.249 Q -107.009 668.178 -106.339 668.149 Q -105.668 668.119 -105.032 668.090 Q -104.397 668.061 -103.118 668.042 Q -101.840 668.023 -101.045 668.041 Q -100.251 668.059 -98.962 668.123 Q -97.674 668.188 -96.907 668.235 Q -96.140 668.282 -93.949 668.423 Q -91.758 668.565 -87.916 669.148 Q -84.073 669.732 -82.278 670.024 Q -80.483 670.317 -79.513 670.510 Q -78.543 670.703 -76.206 671.291 Q -73.869 671.879 -71.903 672.352 Q -69.938 672.825 -67.841 673.325 Q -65.743 673.826 -63.639 674.458 Q -61.534 675.090 -59.728 675.704 Q -57.923 676.318 -56.063 676.942 Q -54.204 677.565 -52.523 678.158 Q -50.842 678.751 -50.110 679.035 Q -49.378 679.318 -49.108 679.430 Q -48.838 679.541 -47.372 680.132 Q -45.906 680.722 -42.593 682.268 Q -39.280 683.815 -37.392 684.817 Q -35.505 685.819 -33.421 687.047 Q -31.337 688.276 -29.870 689.195 Q -28.404 690.114 -26.602 691.310 Q -24.801 692.506 -24.073 692.992 Q -23.346 693.477 -22.133 694.269 Q -20.919 695.060 -20.160 695.558 Q -19.400 696.057 -18.805 696.470 Q -18.210 696.884 -16.985 697.764 Q -15.760 698.645 -15.247 699.023 Q -14.734 699.401 -14.313 699.708 Q -13.891 700.015 -13.704 700.162 Q -13.517 700.309 -11.201 701.973 Q -8.885 703.637 -7.539 704.514 Q -6.192 705.390 -5.132 706.092 Q -4.072 706.793 -2.955 707.569 Q -1.839 708.345 -0.976 708.929 Q -0.112 709.512 1.619 710.619 Q 3.351 711.725 4.115 712.120 Q 4.878 712.516 5.443 712.771 "></path>
    <path id="STROKE_6846a4ef-2218-45d1-a6a4-72ab00e036cb" opacity="1.000" fill="none" stroke="#ffffff" stroke-width="7.524" stroke-opacity="1.000" stroke-linecap="round" stroke-linejoin="round" d="M 2.552 712.869 Q 3.117 713.072 4.284 713.311 Q 5.450 713.549 5.916 713.508 Q 6.383 713.467 6.728 713.316 Q 7.074 713.165 7.257 713.031 Q 7.440 712.897 7.753 712.492 Q 8.067 712.086 8.289 711.194 Q 8.511 710.301 8.433 708.813 Q 8.356 707.325 8.300 706.931 Q 8.243 706.538 7.972 705.018 Q 7.701 703.499 7.391 701.437 Q 7.081 699.375 6.996 698.400 Q 6.911 697.424 6.870 696.562 Q 6.829 695.700 6.802 694.654 Q 6.775 693.608 6.832 692.951 Q 6.889 692.294 6.966 691.917 Q 7.042 691.540 7.388 690.806 Q 7.733 690.073 8.138 689.662 Q 8.543 689.251 9.033 689.014 Q 9.524 688.777 10.973 688.798 Q 12.423 688.820 13.259 689.043 Q 14.095 689.267 15.026 689.658 Q 15.957 690.050 16.666 690.407 Q 17.375 690.764 18.357 691.330 Q 19.338 691.895 20.156 692.410 Q 20.974 692.925 21.955 693.577 Q 22.936 694.229 23.688 694.732 Q 24.440 695.235 25.224 695.765 Q 26.008 696.295 26.649 696.706 Q 27.289 697.116 27.469 697.224 Q 27.648 697.332 29.460 698.529 Q 31.272 699.727 32.338 700.555 Q 33.404 701.384 34.243 702.176 Q 35.081 702.969 35.357 703.254 Q 35.633 703.539 36.342 704.305 Q 37.052 705.072 38.288 706.413 Q 39.524 707.755 40.509 708.808 Q 41.494 709.861 42.595 711.006 Q 43.696 712.151 44.477 712.905 Q 45.259 713.660 45.829 714.174 Q 46.398 714.689 47.084 715.295 Q 47.771 715.902 48.764 716.772 Q 49.758 717.642 50.865 718.643 Q 51.971 719.644 53.192 720.776 Q 54.412 721.908 55.429 722.859 Q 56.446 723.811 57.259 724.582 Q 58.073 725.354 59.079 726.400 Q 60.085 727.446 61.283 728.767 Q 62.482 730.087 63.346 731.053 Q 64.210 732.018 64.739 732.628 Q 65.269 733.238 66.050 734.124 Q 66.831 735.010 67.863 736.172 Q 68.896 737.334 69.936 738.604 Q 70.976 739.875 71.757 740.855 Q 72.539 741.834 73.410 742.947 Q 74.280 744.060 75.081 745.100 Q 75.881 746.139 76.612 747.106 Q 77.342 748.073 78.003 748.967 Q 78.663 749.861 79.549 751.092 Q 80.435 752.323 81.334 753.594 Q 82.233 754.864 82.850 755.763 Q 83.467 756.662 84.281 757.893 Q 85.095 759.125 86.107 760.689 Q 87.119 762.253 88.194 764.038 Q 89.269 765.822 90.407 767.827 Q 91.545 769.831 92.569 771.689 Q 93.593 773.547 94.504 775.258 Q 95.415 776.970 96.221 778.531 Q 97.027 780.092 97.554 781.151 Q 98.080 782.209 98.514 783.105 Q 98.947 784.000 99.464 785.086 Q 99.980 786.171 100.580 787.447 Q 101.179 788.722 101.861 790.188 Q 102.543 791.653 103.130 792.927 Q 103.718 794.202 104.210 795.285 Q 104.703 796.368 105.100 797.260 Q 105.498 798.152 105.953 799.204 Q 106.407 800.255 106.849 801.277 Q 107.290 802.298 107.567 802.938 Q 107.844 803.578 108.320 804.681 Q 108.795 805.784 109.469 807.350 Q 110.143 808.917 110.666 810.139 Q 111.189 811.361 111.561 812.239 Q 111.934 813.117 112.551 814.532 Q 113.167 815.947 114.029 817.899 Q 114.890 819.851 115.717 821.684 Q 116.545 823.517 117.337 825.231 Q 118.130 826.945 118.751 828.243 Q 119.373 829.541 119.822 830.422 Q 120.272 831.303 120.982 832.549 Q 121.692 833.795 122.662 835.406 Q 123.632 837.017 124.498 838.329 Q 125.364 839.641 126.127 840.655 Q 126.890 841.669 127.655 842.514 Q 128.419 843.360 129.541 844.431 Q 130.663 845.502 133.663 847.817 "></path>
  </g>
</svg>